<?xml version="1.0" encoding="UTF-8"?>
<svg width="580px" height="436px" viewBox="0 0 580 436" version="1.1" xmlns="http://www.w3.org/2000/svg" xmlns:xlink="http://www.w3.org/1999/xlink">
    <title>component / spot image / 4:3</title>
    <defs>
        <rect id="path-1" x="0" y="0" width="580" height="436"></rect>
        <polygon id="path-3" points="0 0 524 0 524 20 0 20"></polygon>
    </defs>
    <g id="Phase-2-Re-design" stroke="none" stroke-width="1" fill="none" fill-rule="evenodd">
        <g id="About-us/-desktop" transform="translate(-203.000000, -6876.000000)">
            <g id="Group-11" transform="translate(0.000000, 6876.000000)">
                <g id="component-/-spot-image-/-4:3" transform="translate(203.000000, 0.000000)">
                    <mask id="mask-2" fill="white">
                        <use xlink:href="#path-1"></use>
                    </mask>
                    <g id="spot-image-container"></g>
                    <g id="Join-the-ride-(-illustration)" mask="url(#mask-2)">
                        <g transform="translate(28.000000, 55.000000)">
                            <path d="M322.674067,381 L277.326834,381 C258.92054,381 244,366.001294 244,347.500595 L244,241 L322.674067,241 C341.080361,241 356,255.998706 356,274.499405 L356,347.500595 C356,366.001294 341.080361,381 322.674067,381" id="Fill-1" fill="#008CAF"></path>
                            <path d="M334.386891,273.078952 C329.100261,273.069083 323.811828,273.060202 318.524296,273.052307 C310.144856,273.037504 301.765417,273.022702 293.385977,273.009873 C291.462665,273.005925 289.537548,273.002965 287.612432,273 C284.131895,272.994083 284.126485,278.915127 287.612432,278.921048 C292.899964,278.92993 298.187496,278.937825 303.47593,278.947693 C311.854467,278.961509 320.233907,278.976311 328.613347,278.990127 C330.537561,278.993088 332.462677,278.996048 334.386891,279 C337.868331,279.005917 337.873741,273.084873 334.386891,273.078952" id="Fill-3" fill="#006982"></path>
                            <path d="M331.424573,305 L316.31665,305 L292.109132,305 L286.575427,305 C283.144636,305 283.138414,311 286.575427,311 L301.68335,311 L325.891756,311 L331.424573,311 C334.855364,311 334.861586,305 331.424573,305" id="Fill-5" fill="#006982"></path>
                            <path d="M336,149.786653 C336,149.786653 359.632042,136.490383 439.670318,108.141052 C439.670318,108.141052 444.886282,105.789349 446.675179,101.377991 C448.464077,96.9648298 458.562052,92.2542131 460.593741,92.1172032 C462.624528,91.979292 462.710273,82.6238594 460.284159,78.0178029 C457.859851,73.4117464 461.323922,66.8001174 469.054451,71.7658249 C476.784077,76.7324337 471.470636,91.0932345 475.902264,91.3203825 C480.334795,91.5475305 501.11471,90.0205912 508.470671,91.5853885 C515.82573,93.148383 514.298578,103.177147 503.335939,103.295228 C492.374203,103.41421 485.460502,104.816759 485.460502,104.816759 C485.460502,104.816759 490.514002,105.362094 490.471581,110.03936 C490.42916,114.717527 486.974115,116.869123 486.974115,116.869123 C486.974115,116.869123 490.803728,118.12024 490.006757,123.352756 C489.209786,128.584371 481.151623,128.697945 481.151623,128.697945 C481.151623,128.697945 484.454134,130.47637 482.895392,134.842659 C481.33665,139.209849 471.247701,139.463137 465.550667,135.808038 C465.550667,135.808038 454.532068,139.22968 447.944195,131.164123 C447.944195,131.164123 430.014603,140.364518 408.883589,151.525417 C387.751671,162.686315 361.246743,182.730323 347.499669,185 L336,149.786653 Z" id="Fill-7" fill="#FFA4AD"></path>
                            <path d="M91.0422168,146.276138 L74.906827,136.906405 C74.906827,136.906405 82.2006974,122.162708 94.1636544,98.0375604 C106.520509,73.1165038 123.435582,50.3587333 123.435582,50.3587333 C123.435582,50.3587333 131.157603,60.4135071 141.162788,62.3784921 C151.168875,64.343477 150.467611,57.1820984 150.467611,57.1820984 C150.467611,57.1820984 155.446768,60.3909729 158.426691,56.3825839 C161.406614,52.3732935 158.079664,50.2839197 158.079664,50.2839197 C158.079664,50.2839197 163.768198,53.1367533 166.407404,49.6340324 C169.047511,46.132213 167.388994,43.3911491 167.388994,43.3911491 C167.388994,43.3911491 174.761283,47.1615766 179.059907,48.8813891 C183.359433,50.602103 186.966708,50.9076672 188.567538,47.3733984 C190.167466,43.8391296 187.430011,41.3198026 178.648884,36.5443484 C169.868657,31.7688942 155.379165,21.7880326 155.379165,21.7880326 C155.379165,21.7880326 162.66943,14.4472815 161.168653,5.72383007 C159.666973,-2.99781866 150.69746,-0.752507896 149.930395,5.78602455 C149.16243,12.324557 145.330714,17.5966657 141.381821,16.9765236 C137.432026,16.3545788 128.793314,13.16914 117.72812,22.9201524 C106.664728,32.669362 101.727034,38.6256099 85.182423,54.176032 C68.6387134,69.7255527 38.8187536,103.920797 39,133.555114 C39.1820049,163.18943 60.3371135,177.946647 72.9508583,187 L91.0422168,146.276138 Z" id="Fill-9" fill="#FFA4AD"></path>
                            <polygon id="Fill-11" fill="#76C11C" points="234.377417 172.531269 337.844596 149.275365 361 217.093733 306.923567 233.752 329.289613 381 135.627463 381 134.978675 241.967023 62 204.961081 91.5919161 146 168.963423 178.847464"></polygon>
                            <path d="M213,93.8396537 C213,93.8396537 212.807209,76.0207599 235.845622,71.6344747 C258.884035,67.2481894 273.131702,86.3422179 278.051027,106.156742 C282.969442,125.970375 288.414537,133.799524 299,132.208726 C299,132.208726 282.188972,154.860648 248.950783,122.917185 L213,93.8396537 Z" id="Fill-14" fill="#000000"></path>
                            <path d="M246.834704,112 C246.834704,112 249.38139,107.758131 246.945109,101.317603 C244.509748,94.8779672 231.25557,87.904078 223,94.9476525 L246.834704,112 Z" id="Fill-16" fill="#A7E2EF"></path>
                            <path d="M163.699497,148.812951 C163.699497,148.812951 156.050382,135.054501 162.749759,117.345934 C169.449136,99.6364686 191.355093,82.8761097 221.127607,93.1248426 C250.899222,103.372677 256.134009,126.464008 255.997434,144.380192 C255.860858,162.296375 235.811247,176 235.811247,176 L163.699497,148.812951 Z" id="Fill-18" fill="#000000"></path>
                            <path d="M203.290706,200.820296 C203.290706,200.820296 207.985581,213.161113 217.763097,209.225258 C227.540613,205.288508 235.922895,185.085821 237.205786,180.733028 C238.488677,176.381129 233.888026,161.699735 233.888026,161.699735 C233.888026,161.699735 243.541421,160.403291 245.521024,151.673548 C247.501532,142.943804 243.12285,136.143068 236.392201,136.701371 C229.661552,137.259673 230.416247,141.021059 229.706851,145.865946 C228.99655,150.711728 225.949683,150.384262 224.276307,143.274849 C224.276307,143.274849 213.650778,141.187476 215.996404,121 C215.996404,121 211.782613,127.194119 212.511034,134.668576 L192.798359,138.97037 C192.798359,138.97037 187.144033,132.699306 188.183211,123.387102 C188.183211,123.387102 184.793878,132.625939 187.496466,139.750563 C187.496466,139.750563 166.059678,144.894285 165.172708,144.903232 C164.285737,144.911284 166.886853,176.743489 171.328049,189.985286 C175.768339,203.227082 187.667699,208.913897 203.290706,200.820296" id="Fill-20" fill="#FFA4AD"></path>
                            <path d="M162.001319,144.892856 C162.235423,152.049725 163.424779,159.121791 164.642837,166.162281 C165.884216,173.330879 167.069087,180.513009 168.37415,187.67078 C168.946404,190.806703 169.708811,193.93992 171.267711,196.745651 C172.633766,199.204951 174.540682,201.3097 176.765118,203.006671 C181.821226,206.865228 188.238007,207.724088 194.348032,206.451134 C201.74787,204.91114 208.030109,200.423775 214.039675,196.056397 C214.891777,195.436611 215.307065,194.349503 214.738399,193.372459 C214.245973,192.526229 212.928353,192.046277 212.070869,192.669673 C203.201826,199.115637 190.878628,207.576133 179.966333,200.493241 C177.950886,199.185103 176.222463,197.406035 174.973012,195.347296 C173.434742,192.812215 172.748575,189.918974 172.209508,187.028439 C170.97082,180.402043 169.898068,173.741364 168.747281,167.097826 C167.471818,159.739774 166.146125,152.375407 165.901258,144.892856 C165.818739,142.374915 161.917903,142.363187 162.001319,144.892856" id="Fill-22" fill="#000000"></path>
                            <path d="M202.13184,150.308317 C197.097897,147.994116 201.716121,142.860076 208.323171,142.135705 C214.93022,141.41228 216.208751,143.73879 215.97431,145.388274 C215.507172,148.655993 207.166654,152.622517 202.13184,150.308317" id="Fill-24" fill="#FFFFFF"></path>
                            <path d="M213.500172,148 C216.830071,148 216.83648,143 213.500172,143 C210.169357,143 210.163863,148 213.500172,148" id="Fill-26" fill="#000000"></path>
                            <path d="M173.132426,155.308349 C168.097566,152.994229 172.715832,147.85942 179.322941,147.136021 C185.93005,146.411674 187.209464,148.738104 186.97415,150.38753 C186.507007,153.656083 178.166414,157.62247 173.132426,155.308349" id="Fill-28" fill="#FFFFFF"></path>
                            <path d="M182.499657,154 C185.8307,154 185.836194,149 182.499657,149 C179.169529,149 179.164035,154 182.499657,154" id="Fill-30" fill="#000000"></path>
                            <path d="M170.268089,147.335084 C172.156834,145.086631 174.191211,142.895832 177.068107,142.330836 C178.486899,142.051221 179.988782,142.169408 181.417402,142.300088 C182.099995,142.361584 182.727194,142.40098 183.32759,142.536464 C183.508959,142.577781 183.928879,142.683478 184.004822,142.718069 C184.041453,142.735365 184.488176,143.097616 184.360413,142.914088 C184.987612,143.817313 186.040985,144.278534 187.018415,143.663572 C187.84664,143.143738 188.346076,141.714914 187.715303,140.805924 C186.490388,139.038871 184.835726,138.516154 182.875506,138.274013 C180.97872,138.04052 179.050663,137.874288 177.148517,138.125077 C173.117289,138.655481 170.163556,141.236397 167.521636,144.381348 C165.849105,146.371324 168.587517,149.33563 170.268089,147.335084" id="Fill-32" fill="#000000"></path>
                            <path d="M197.694026,141.078223 C199.012001,138.73902 201.4824,136.186015 204.49636,135.808073 C207.181976,135.471376 211.504714,135.234846 213.216335,137.641388 C214.614327,139.607698 218.078955,137.775225 216.669007,135.793763 C214.009143,132.054743 208.827376,131.698686 204.398869,132.157436 C199.973121,132.616185 196.230733,135.696963 194.241354,139.23144 C193.064097,141.321486 196.51401,143.175003 197.694026,141.078223" id="Fill-34" fill="#000000"></path>
                            <path d="M67.6326177,134.394697 C74.7659777,138.533087 81.8984239,142.670597 89.0317839,146.808987 C90.4946389,147.657617 91.8277467,145.453292 90.3685465,144.605543 C83.2351865,140.467153 76.1027403,136.328762 68.9693803,132.191252 C67.5046979,131.341742 66.1715901,133.547827 67.6326177,134.394697" id="Fill-36" fill="#000000"></path>
                            <path d="M120.211624,47.8900119 C123.50032,52.9685394 127.660751,57.6207542 133.373489,59.9331238 C134.016891,60.1936975 134.783309,59.6503925 134.951461,59.0361832 C135.153243,58.3014364 134.701003,57.7164751 134.055831,57.4559014 C129.020126,55.4165137 125.310165,51.0470302 122.426803,46.5924615 C121.531173,45.210712 119.308914,46.4967405 120.211624,47.8900119" id="Fill-38" fill="#000000"></path>
                            <path d="M139.64759,51.5699749 C142.759258,53.6760957 145.885428,55.7565436 149.027008,57.8132205 C149.628857,58.2068701 150.473621,57.9482404 150.824397,57.3187813 C151.192395,56.6588952 150.956731,55.8288078 150.353069,55.4332565 C147.21149,53.3765796 144.08532,51.2961317 140.974558,49.1900109 C140.378147,48.785902 139.523413,49.0616469 139.176262,49.6844501 C138.803732,50.3528939 139.050273,51.1649151 139.64759,51.5699749" id="Fill-40" fill="#000000"></path>
                            <path d="M147.641616,45.5363005 C150.837374,47.2869178 153.910218,49.3086776 156.766156,51.6157512 C157.324691,52.0673405 158.073019,52.185434 158.618901,51.6157512 C159.068982,51.1443221 159.181954,50.1334422 158.618901,49.6790186 C155.578592,47.2236197 152.36747,45.0355843 148.963842,43.1715973 C148.337524,42.828654 147.540392,43.0034323 147.170747,43.6628661 C146.826408,44.2797863 147.012586,45.1924124 147.641616,45.5363005" id="Fill-42" fill="#000000"></path>
                            <path d="M156.648602,37.5684687 C159.775728,39.7864778 162.819512,42.1326131 165.761836,44.6125694 C166.313522,45.0776205 167.078997,45.1782234 167.618001,44.6125694 C168.078192,44.1304347 168.174216,43.1348457 167.618001,42.6669474 C164.501746,40.0398832 161.286749,37.5428434 157.973916,35.1929117 C157.385995,34.777213 156.518154,35.0752253 156.176634,35.6873844 C155.798879,36.3640812 156.059775,37.1518209 156.648602,37.5684687" id="Fill-44" fill="#000000"></path>
                            <path d="M485.067515,116.035787 C482.609012,117.405396 479.415528,116.568112 476.822264,116.08541 C475.269852,115.795789 473.723646,115.470079 472.190738,115.091136 C470.966363,114.789786 469.500836,114.44603 468.695816,113.364237 C467.151383,111.289975 468.608044,108.896317 470.713686,108.118581 C473.453237,107.105359 476.496887,108.031063 479.301159,108.213317 C480.951982,108.320684 480.946663,105.705074 479.301159,105.598609 C476.427733,105.411844 473.52771,104.642229 470.672016,105.398311 C470.218084,105.519211 469.771245,105.689736 469.336817,105.889132 C469.53364,105.023879 469.686132,104.144189 469.758832,103.254575 C469.895367,101.5773 467.324267,101.586323 467.188619,103.254575 C466.890726,106.909572 465.207099,110.38412 462.565959,112.873416 C459.784739,115.495342 456.008768,116.828861 452.240777,116.719689 C450.585521,116.670968 450.587294,119.28748 452.240777,119.334397 C456.68612,119.463418 461.116391,117.805091 464.383461,114.723019 C464.894134,114.24122 465.358706,113.71882 465.801112,113.179277 C466.103438,114.132048 466.644255,114.990986 467.376576,115.6794 C466.240859,116.233379 465.23281,117.071565 464.468573,118.102832 C462.85144,120.285364 462.424106,123.493749 464.326719,125.637485 C464.46946,125.79628 464.633478,125.938835 464.792177,126.084999 C464.172453,126.283493 463.584647,126.564994 463.085499,127.007094 C462.139511,127.844378 461.377047,129.15083 461.094226,130.391417 C460.778602,131.771853 461.037485,133.173041 461.882401,134.308066 C462.736184,135.456625 463.925096,136.175714 465.158337,136.836158 C465.772741,137.164576 466.555597,136.994953 466.916437,136.366088 C467.256,135.776922 467.072477,134.907157 466.456299,134.577837 C465.569713,134.102354 464.763806,133.658449 464.081135,132.941164 C463.572235,132.407034 463.414422,131.670802 463.607698,130.942689 C463.730047,130.48074 463.871901,130.198337 464.150289,129.758041 C464.215896,129.652478 464.285936,129.549622 464.358636,129.446766 C464.387007,129.407067 464.415378,129.366466 464.444635,129.326768 C464.402079,129.386316 464.408285,129.380902 464.462367,129.313234 C464.588262,129.164363 464.794837,128.940606 464.882609,128.872036 C465.151244,128.661812 465.590105,128.560761 466.032511,128.459709 C466.582194,128.332493 467.136311,128.228735 467.693087,128.142119 C467.766673,128.131292 467.834941,128.106931 467.900548,128.079864 C469.094779,128.678955 470.343093,129.179701 471.619777,129.558645 C474.389472,130.381493 477.296588,130.702692 480.174446,130.748707 C481.829702,130.774872 481.830589,128.159262 480.174446,128.133097 C475.666156,128.060917 471.011579,127.247091 467.187733,124.670278 C466.377393,124.125321 465.688516,123.486531 465.623795,122.443535 C465.566167,121.495275 465.909276,120.556038 466.430588,119.783715 C467.442183,118.284183 469.170139,117.452312 470.939765,117.585845 C471.07364,117.59577 471.192442,117.583138 471.304152,117.55968 C471.706662,117.662536 472.110945,117.759076 472.513456,117.85291 C474.060548,118.208394 475.617394,118.523278 477.180445,118.794854 C480.245373,119.326277 483.503577,119.888376 486.36459,118.29501 C487.816819,117.485696 486.52063,115.227375 485.067515,116.035787" id="Fill-46" fill="#000000"></path>
                            <path d="M136.993342,231.239025 C137.149077,229.582085 134.522418,229.591906 134.3694,231.239025 C134.069702,234.431489 133.835195,237.627525 133.663163,240.827132 C128.380871,237.956949 123.140229,235.015346 117.954818,231.980005 C116.498883,231.127431 115.176952,233.364656 116.630171,234.214552 C122.207633,237.480222 127.844855,240.646797 133.533686,243.719633 C133.186,252.061465 133.260245,260.41758 133.779963,268.754948 C133.882277,270.409209 136.508936,270.420815 136.404811,268.754948 C135.62614,256.254699 135.822619,243.710706 136.993342,231.239025" id="Fill-48" fill="#000000"></path>
                            <path d="M216.655597,171.124051 C217.037588,171.173089 216.539702,171.091651 216.44235,171.068883 C216.286587,171.031229 216.131751,170.986569 215.979696,170.934029 C215.937047,170.919142 215.692276,170.805304 215.870291,170.895499 C216.05665,170.990072 215.781283,170.850839 215.768303,170.844709 C215.623666,170.775531 215.482737,170.699347 215.346445,170.617908 C215.291742,170.585508 215.237967,170.552233 215.185119,170.517205 C215.175847,170.511076 215.072932,170.434016 215.047899,170.416502 C215.025647,170.399864 215.007103,170.383227 214.998759,170.377097 C214.938494,170.327183 214.879155,170.274642 214.820744,170.222102 C214.704849,170.115269 214.603788,169.997928 214.491602,169.886717 C214.48882,169.88409 214.48882,169.884965 214.486039,169.882338 C214.442462,169.823668 214.397958,169.763246 214.357163,169.702824 C214.272791,169.580229 214.19491,169.454131 214.125373,169.322779 C214.124446,169.321904 214.094776,169.26586 214.07067,169.217698 C214.050273,169.170411 214.015968,169.0916 214.009478,169.073211 C213.951066,168.915589 213.901,168.754464 213.861132,168.590712 C213.841661,168.510149 213.829608,168.426084 213.809211,168.345522 C213.807356,168.340268 213.807356,168.340268 213.805502,168.335889 L213.805502,168.334138 C213.791595,168.166883 213.779541,168.000504 213.781396,167.832374 C213.781396,167.745682 213.767488,167.567919 213.786032,167.442697 C213.787886,167.457583 213.79623,167.448827 213.813846,167.371767 C213.831462,167.289453 213.848151,167.207139 213.868549,167.126577 C213.914907,166.946187 213.974245,166.771927 214.042855,166.599418 C214.284845,165.975059 213.77027,165.181694 213.103641,165.038083 C212.343368,164.873455 211.711044,165.256127 211.450511,165.92427 C210.991566,167.100306 210.986003,168.456733 211.393027,169.6713 C208.820154,171.576777 206.052576,173.249324 203.148706,174.663545 C201.67081,175.383353 200.158609,176.048869 198.608395,176.616309 C197.048909,177.186376 195.365184,177.716162 193.681458,177.376398 C191.993097,177.034008 191.272692,179.480655 192.965689,179.823921 C196.7448,180.589264 200.595303,178.704803 203.889508,177.150473 C207.035367,175.667073 209.982814,173.866677 212.766154,171.84561 C213.140727,172.221277 213.558877,172.556662 214.031729,172.833376 C214.842069,173.30887 215.720091,173.545303 216.655597,173.662644 C217.355604,173.750212 218.028723,173.016393 217.999054,172.393785 C217.962895,171.630193 217.405671,171.218624 216.655597,171.124051" id="Fill-50" fill="#000000"></path>
                            <path d="M207.048676,179.196324 C205.969621,179.995113 204.817379,180.67687 203.604446,181.228591 C203.53483,181.257385 203.319733,181.351196 203.291172,181.363271 C203.131411,181.428288 202.970758,181.492377 202.809212,181.552751 C202.526283,181.659565 202.240678,181.759878 201.953286,181.851832 C201.296393,182.062675 200.628789,182.234508 199.954045,182.371045 C199.288226,182.506653 198.846429,183.372317 199.049923,184.027138 C199.279301,184.764624 199.927269,185.112004 200.640392,184.968037 C203.402737,184.406098 206.063335,183.21999 208.35443,181.520242 C208.904222,181.113417 209.221066,180.328561 208.81854,179.679313 C208.466888,179.110872 207.637738,178.758848 207.048676,179.196324" id="Fill-52" fill="#000000"></path>
                            <path d="M195.413794,171.750456 C195.809208,170.869586 195.925557,169.949407 195.997291,168.98992 C196.04803,168.312741 195.377052,167.665935 194.729694,167.695417 C193.998353,167.728472 193.515459,168.265392 193.460346,168.98992 C193.448099,169.167702 193.434102,169.344591 193.415731,169.520586 C193.412232,169.554535 193.408732,169.58759 193.405233,169.620645 C193.39561,169.676034 193.387737,169.73053 193.378989,169.784133 C193.348371,169.958341 193.309879,170.131656 193.260015,170.300505 C193.239894,170.373762 193.197029,170.461312 193.178658,170.53993 L193.176908,170.543503 C193.133168,170.631054 193.080679,170.712351 193.033439,170.798116 C192.982701,170.851718 192.931087,170.906214 192.878598,170.95803 C192.816487,170.996445 192.754376,171.033074 192.692264,171.069702 C192.612657,171.093823 192.535673,171.120625 192.454316,171.138492 C192.448192,171.140279 192.441194,171.140279 192.43507,171.142066 C192.371209,171.145639 192.309098,171.150106 192.246986,171.150106 C192.224241,171.150106 192.154257,171.142959 192.103518,171.140279 C192.074649,171.134919 192.04928,171.129559 192.038782,171.126878 C191.972297,171.109904 191.908435,171.08757 191.844574,171.066129 C191.839326,171.065235 191.834077,171.062555 191.828828,171.059875 C191.761468,171.023247 191.699356,170.979471 191.63462,170.939269 L191.629372,170.933909 C191.568135,170.87852 191.511272,170.819557 191.456159,170.757914 C191.447411,170.74898 191.444787,170.7463 191.438663,170.738259 C191.399297,170.679296 191.35993,170.61944 191.325813,170.557797 C191.295195,170.505088 191.269825,170.436298 191.237457,170.380015 C191.233958,170.366614 191.228709,170.355894 191.22521,170.342493 C191.19984,170.262983 191.177095,170.181685 191.158724,170.099495 C191.1561,170.090561 191.151726,170.06644 191.147352,170.040532 C191.142978,169.986929 191.135105,169.898485 191.135105,169.874364 C191.133355,169.777879 191.138604,169.683181 191.146477,169.586696 C191.200715,168.909516 190.524488,168.262711 189.878879,168.292193 C189.265638,168.319888 188.848355,168.7094 188.688265,169.256147 C188.611281,169.422315 188.555294,169.604564 188.538672,169.805574 C188.52555,169.952981 188.509804,170.100388 188.494057,170.247795 C188.459065,170.472926 188.416199,170.698057 188.346214,170.915148 C188.342715,170.923188 188.335717,170.942843 188.328718,170.959817 C188.318221,170.984831 188.307723,171.007166 188.303349,171.015206 C188.27623,171.069702 188.245611,171.122412 188.212369,171.175121 C188.229865,171.157253 188.238613,171.146533 188.263982,171.122412 C188.235114,171.151 188.186999,171.220683 188.13801,171.281433 C188.131012,171.285006 188.135386,171.281433 188.121389,171.287686 C188.107392,171.293047 188.093395,171.302874 188.077648,171.310914 C188.037407,171.323421 187.997166,171.335929 187.956925,171.347543 C187.898312,171.36273 187.840575,171.369877 187.781963,171.381491 C187.520395,171.406505 187.259702,171.409186 186.999009,171.389531 C186.943021,171.377024 186.887034,171.36809 186.832795,171.351116 C186.851166,171.361837 186.863414,171.36809 186.885284,171.382384 L186.884409,171.382384 C186.864289,171.369877 186.843293,171.36005 186.822298,171.348436 C186.816174,171.346649 186.81005,171.345756 186.803052,171.343969 C186.837169,171.371664 186.817924,171.363623 186.776808,171.333249 C186.74444,171.319848 186.723444,171.309127 186.712947,171.298407 C186.716446,171.30466 186.717321,171.305554 186.719945,171.312701 C186.717321,171.306447 186.713821,171.30198 186.711197,171.295727 C186.712072,171.29662 186.712072,171.297513 186.712947,171.298407 C186.711197,171.293047 186.709447,171.29126 186.705948,171.286793 L186.704199,171.2859 C186.701574,171.281433 186.698075,171.276072 186.69545,171.270712 C186.67358,171.254631 186.650835,171.239444 186.628965,171.22515 C186.659583,171.244804 186.670956,171.252845 186.693701,171.268032 C186.686702,171.256418 186.680579,171.244804 186.67358,171.234084 C186.661333,171.220683 186.647336,171.209069 186.636838,171.195668 C186.617592,171.174227 186.60797,171.15904 186.600971,171.142959 C186.599221,171.139386 186.598347,171.138492 186.596597,171.132239 C186.594847,171.125985 186.594847,171.120625 186.593098,171.114371 C186.596597,171.114371 186.603596,171.124198 186.611469,171.133132 C186.603596,171.118838 186.594847,171.106331 186.586974,171.09293 C186.569478,171.033074 186.557231,170.974111 186.543234,170.915148 C186.530986,170.657855 186.550232,170.396096 186.583475,170.139697 C186.600971,170.023558 186.617592,169.908312 186.637713,169.793066 C186.646461,169.757331 186.662208,169.72517 186.667457,169.686755 C187.33931,164.667762 188.012912,159.649663 188.68564,154.631563 C188.77837,153.940983 188.522051,153.241469 187.800334,153.039565 C187.208088,152.872504 186.334154,153.245936 186.241425,153.943663 C185.568697,158.953722 184.896844,163.961994 184.225865,168.972053 C184.217992,169.000641 184.203995,169.025655 184.199621,169.05603 C184.057027,169.864537 183.905685,170.727539 184.074524,171.544979 C184.196997,172.138181 184.532048,172.759078 184.977326,173.163778 C185.649179,173.774848 186.468875,174.001766 187.356806,173.99999 C188.281479,173.998192 189.228022,173.790036 189.912122,173.116429 C189.967235,173.06104 190.012725,173.001184 190.063464,172.943114 C190.39939,173.218274 190.781682,173.436258 191.19984,173.575625 C192.803365,174.109865 194.703449,173.331733 195.413794,171.750456" id="Fill-54" fill="#000000"></path>
                            <path d="M188.539474,171.454797 C188.397474,171.596797 188.478474,171.551797 188.539474,171.454797" id="Fill-56" fill="#000000"></path>
                            <path d="M186.443,171.472 C186.444,171.472 186.445,171.472 186.446,171.473 C186.447,171.474 186.448,171.476 186.449,171.477 C186.466,171.492 186.481,171.503 186.497,171.515 C186.506,171.519 186.511,171.522 186.522,171.526 C186.524,171.527 186.526,171.527 186.527,171.527 C186.519,171.52 186.517,171.517 186.501,171.505 C186.516,171.515 186.532,171.523 186.548,171.532 C186.552,171.533 186.556,171.533 186.561,171.534 C186.512,171.505 186.474,171.484 186.452,171.474 C186.448,171.472 186.443,171.468 186.439,171.466 L186.445,171.472 L186.443,171.472 Z" id="Fill-58" fill="#000000"></path>
                            <path d="M186.525,171.5255 C186.507,171.5085 186.492,171.4915 186.475,171.4745 C186.481,171.4845 186.486,171.4925 186.492,171.5045 C186.504,171.5115 186.515,171.5185 186.525,171.5255" id="Fill-60" fill="#000000"></path>
                            <path d="M186.5405,171.5625 C186.5045,171.4985 186.4775,171.4575 186.4595,171.4375 C186.4825,171.4745 186.5045,171.5135 186.5295,171.5505 C186.5325,171.5545 186.5365,171.5585 186.5405,171.5625" id="Fill-62" fill="#000000"></path>
                            <path d="M186.501,171.5 C186.5,171.499 186.499,171.498 186.497,171.497 C186.497,171.498 186.498,171.499 186.499,171.5 C186.5,171.501 186.501,171.502 186.503,171.503 C186.502,171.502 186.502,171.501 186.501,171.5" id="Fill-64" fill="#000000"></path>
                            <path d="M186.4825,171.488 C186.4855,171.493 186.4875,171.497 186.4905,171.503 C186.4945,171.503 186.5075,171.509 186.5175,171.512 C186.5055,171.504 186.4945,171.496 186.4825,171.488" id="Fill-66" fill="#000000"></path>
                            <path d="M236.738609,149.402604 C236.75069,149.340981 236.774852,149.204529 236.774852,149.209811 C236.795297,149.110333 236.81853,149.012616 236.842693,148.912258 C236.892876,148.716824 236.951424,148.52227 237.020194,148.329476 C237.054579,148.2344 237.091752,148.139324 237.128925,148.045128 C237.141935,148.012556 237.143794,148.006394 237.148441,147.992308 C237.14937,147.994069 237.154017,147.989667 237.168886,147.959736 C237.358468,147.598799 237.562919,147.250186 237.814766,146.923582 C237.829635,146.903335 237.829635,146.901574 237.831494,146.898053 C237.841717,146.889249 237.850081,146.880446 237.880748,146.849634 C237.952306,146.775686 238.020147,146.698217 238.093564,146.625149 C238.256195,146.462287 238.42905,146.31263 238.610268,146.168255 C239.165075,145.722806 239.093517,144.822224 238.610268,144.36269 C238.059179,143.842412 237.260889,143.91724 236.704224,144.36269 C233.253642,147.126059 233.112385,152.598218 236.239561,155.618645 C237.455118,156.793011 239.359303,154.987446 238.144676,153.81396 C238.006207,153.680149 237.874243,153.541936 237.749713,153.396681 C237.722763,153.360588 237.67165,153.296323 237.659569,153.278716 C237.601951,153.195085 237.540616,153.111453 237.486715,153.02606 C237.376125,152.855276 237.273899,152.678328 237.181896,152.49698 C237.174462,152.483774 237.068519,152.236401 237.088964,152.294503 C237.067589,152.240802 237.046215,152.186221 237.026699,152.132521 C236.895664,151.773345 236.800873,151.402724 236.73675,151.029462 C236.730245,150.974001 236.710729,150.824344 236.709799,150.8129 C236.702365,150.731909 236.696789,150.650918 236.692142,150.569047 C236.68099,150.345442 236.68099,150.121837 236.692142,149.898232 C236.697718,149.796994 236.704224,149.695755 236.714446,149.595397 C236.716305,149.57603 236.730245,149.463347 236.738609,149.402604" id="Fill-68" fill="#000000"></path>
                            <path d="M191.012383,205.529914 C193.599787,227.378099 198.402785,248.934336 205.485141,269.773809 C207.474416,275.625421 209.640615,281.415569 211.972062,287.139736 C212.487567,288.404241 213.662272,289.299066 215.093831,288.906789 C216.297275,288.576879 217.385763,287.068331 216.867564,285.794787 C208.706599,265.757041 202.631004,244.888643 198.790761,223.602661 C197.70856,217.606432 196.805079,211.580375 196.088401,205.529914 C195.928541,204.173215 195.036735,203 193.550392,203 C192.302942,203 190.850727,204.163272 191.012383,205.529914" id="Fill-70" fill="#000000"></path>
                            <path d="M235.970885,170.134525 C240.520708,184.626275 241.603913,199.899851 240.46284,214.991963 C239.295547,230.415403 235.74032,245.553559 231.347824,260.351358 C228.812509,268.890044 225.984241,277.338449 223.110764,285.768798 C222.665909,287.072442 223.621625,288.557548 224.895611,288.907835 C226.296183,289.291525 227.592773,288.434767 228.039437,287.125707 C233.196868,271.993871 238.220479,256.774464 241.636463,241.139768 C244.961125,225.920361 246.782139,210.245039 245.67633,194.665415 C245.055159,185.892904 243.536141,177.174562 240.899558,168.777616 C239.918525,165.65483 234.982619,166.988266 235.970885,170.134525" id="Fill-72" fill="#000000"></path>
                            <path d="M237.370024,335.82365 L206.963813,336.99714 C204.945303,337.074593 203.221272,335.569679 203.050784,333.581139 L199.013762,286.223635 C198.835068,284.144134 200.417785,282.325809 202.524731,282.185315 L235.296812,280.008548 C237.42655,279.867153 239.252691,281.497251 239.326539,283.606472 L240.997691,331.967252 C241.069716,334.019735 239.447796,335.743496 237.370024,335.82365" id="Fill-74" fill="#007D00"></path>
                            <path d="M231.97479,299.261801 C232.382386,305.322604 227.799,310.5673 221.738197,310.974895 C215.676477,311.381574 210.432696,306.799106 210.025101,300.737387 C209.618421,294.676585 214.201807,289.432805 220.26261,289.02521 C226.323414,288.617614 231.568111,293.200999 231.97479,299.261801" id="Fill-76" fill="#00CF00"></path>
                            <path d="M212.76065,316.997578 C217.562323,316.639369 222.363997,316.279197 227.16567,315.920007 C227.856787,315.868974 228.547022,315.816961 229.23902,315.764947 C230.250131,315.688398 230.257183,313.926795 229.23902,314.002363 C224.437347,314.361553 219.635673,314.721725 214.834881,315.080915 L212.76065,315.235975 C211.750421,315.311543 211.742487,317.074126 212.76065,316.997578" id="Fill-78" fill="#FFFFFF"></path>
                            <path d="M233.218648,319.002039 C226.383798,319.432448 219.548043,319.862858 212.714098,320.29242 C211.736139,320.35427 210.759085,320.415273 209.782031,320.476276 C208.743402,320.542363 208.735252,322.063199 209.782031,321.99796 C216.615975,321.568398 223.451731,321.137988 230.286581,320.708426 C231.263635,320.646576 232.241594,320.585573 233.218648,320.523723 C234.256372,320.458484 234.264521,318.9368 233.218648,319.002039" id="Fill-80" fill="#FFFFFF"></path>
                            <path d="M223.110552,302.040706 C223.905957,301.230814 224.382703,300.080608 224.302418,298.821362 C224.160884,296.56404 222.322595,294.858078 220.197928,295.009328 C218.074916,295.161458 216.468379,297.113641 216.610741,299.370084 C216.691026,300.62933 217.308479,301.702152 218.198241,302.391572 C216.778761,303.401958 215.887344,305.165079 216.011497,307.10671 L216.115785,308.765187 C217.694181,309.654221 219.510949,310.113248 221.424557,309.976068 C223.106413,309.856475 224.661633,309.294562 226,308.409045 L225.872537,306.402341 C225.749211,304.459831 224.64508,302.840046 223.110552,302.040706" id="Fill-82" fill="#FFFFFF"></path>
                            <polygon id="Fill-84" fill="#000000" points="214 326.06434 214.411805 332 215 331.910128 214.590254 326"></polygon>
                            <polygon id="Fill-86" fill="#000000" points="215 326.130368 215.515152 332 217 331.819725 216.489177 326"></polygon>
                            <polygon id="Fill-88" fill="#000000" points="217 326.258368 217.584661 332 221 331.643734 220.425299 326"></polygon>
                            <polygon id="Fill-90" fill="#000000" points="222 326.111521 222.501529 331 224 330.845451 223.503713 326"></polygon>
                            <polygon id="Fill-92" fill="#000000" points="226 326.11486 226.493187 331 228 330.842067 227.511209 326"></polygon>
                            <polygon id="Fill-94" fill="#000000" points="228 325.116406 228.488321 330 230 329.839942 229.516086 325"></polygon>
                            <polygon id="Fill-96" fill="#000000" points="213.0125 326.014347 213.5635 332 213.9875 331.955935 213.3775 326"></polygon>
                            <polygon id="Fill-98" fill="#000000" points="224 326.057585 224.397472 331 225 330.919921 224.603933 326"></polygon>
                            <path d="M232.913995,280.003601 C224.503337,280.67705 216.092679,281.348403 207.682901,282.021851 C206.483643,282.118208 205.284385,282.213517 204.086007,282.308826 C202.643727,282.425083 202.63228,285.112591 204.086007,284.996335 C212.497545,284.322887 220.906442,283.649439 229.31798,282.978085 C230.516358,282.882776 231.715617,282.786419 232.913995,282.690063 C234.357155,282.574854 234.366841,279.888392 232.913995,280.003601" id="Fill-100" fill="#000000"></path>
                            <path d="M42.4968243,24 C43.7384282,24 44.9945539,23.1817623 44.9954615,21.6174842 L45,13.3851926 C45.0009071,11.8200232 43.7429663,11 42.5022699,11 C41.8569626,10.9991115 41.2534051,11.2094646 40.8005101,11.5909523 C40.2804523,12.0294849 40.0045403,12.6498482 40.0036327,13.3825186 L40,21.6148103 C39.9990946,22.3474806 40.274099,22.9678439 40.7950644,23.4072679 C41.2479594,23.7896469 41.8533321,23.9991087 42.4968243,24" id="Fill-102" fill="#FFFFFF"></path>
                            <path d="M34.5264761,27.1226933 L26.2837597,27.000268 C25.4329388,26.9887351 24.7362458,27.3498013 24.3353354,28.0187051 C23.884534,28.7683387 23.8889886,29.8187129 24.3442445,30.6322206 C24.7807914,31.4102427 25.5567756,31.8644586 26.4744148,31.8777657 L34.7162403,31.9993039 C34.7777133,32.0010782 34.8400771,31.9993039 34.8997682,31.9957554 C35.6704069,31.9576083 36.2931543,31.6018651 36.6646646,30.9817539 C37.115466,30.2321203 37.1110114,29.180859 36.6557555,28.3673513 C36.2200996,27.5902163 35.4432244,27.1360004 34.5264761,27.1226933" id="Fill-104" fill="#FFFFFF"></path>
                            <path d="M58.6605426,27.004538 L50.3412079,27 C48.8049001,27 48.0008756,28.2570338 48,29.4977307 C47.9991258,30.7384277 48.8022754,31.9945539 50.3394582,31.9954615 L58.6579179,32 C60.1942258,32.0009071 60.9991251,30.7429657 61,29.5022688 C61,28.2615718 60.1968504,27.0054456 58.6605426,27.004538" id="Fill-106" fill="#FFFFFF"></path>
                            <path d="M43.6315749,35.2919293 C42.8341105,34.9096176 41.7887023,34.9017798 41.0360788,35.2745119 C40.3555524,35.6132802 39.9871537,36.1993753 40.0003422,36.9248096 L40.1462949,44.7217042 L40.1269518,44.8114038 C40.0996956,44.9228751 40.0662847,45.0622142 40.0847486,45.2363881 L40.1638796,45.9801106 C40.3001607,47.2716101 41.5381209,47.9613387 42.7075009,47.9987861 C42.7769603,48.0005279 42.847299,48.0005279 42.9158792,47.9979152 C43.9692004,47.9604679 45.0216424,47.352601 44.9996616,46.0767771 L44.8378827,37.0476022 C44.823815,36.2916875 44.3841984,35.6524693 43.6315749,35.2919293" id="Fill-108" fill="#FFFFFF"></path>
                            <path d="M419.000427,200 C419.994666,200 421,199.307352 421,197.984057 L421,191.016829 C421,189.692648 419.992959,189 418.999573,189 C418.483252,189 417.99936,189.178034 417.636655,189.501329 C417.221037,189.872453 417,190.396811 417,191.016829 L417,197.984057 C417,198.603189 417.221037,199.127547 417.637508,199.499557 C418.001067,199.822852 418.484958,200 419.000427,200" id="Fill-110" fill="#FFFFFF"></path>
                            <path d="M411.905052,202.118105 L404.931269,202.000265 C404.212377,201.988793 403.621859,202.350657 403.282775,203.020156 C402.902081,203.770996 402.906508,204.823215 403.291629,205.635583 C403.660813,206.414579 404.318617,206.869255 405.095056,206.881769 L412.068839,206.999609 C412.120188,207.000652 412.172423,206.999609 412.222887,206.99648 C412.876264,206.957896 413.402153,206.601246 413.717332,205.979718 C414.098026,205.228877 414.0936,204.177701 413.707594,203.363248 C413.338409,202.585294 412.68149,202.131662 411.905052,202.118105" id="Fill-112" fill="#FFFFFF"></path>
                            <path d="M434.02,203 L426.98,203 C425.68,203 425,204.007041 425,205.00128 C425,205.993813 425.68,207 426.98,207 L434.02,207 C435.32,207 436,205.992959 436,204.99872 C436,204.006187 435.32,203 434.02,203" id="Fill-114" fill="#FFFFFF"></path>
                            <path d="M420.62828,210.246706 C419.830662,209.923028 418.786432,209.91697 418.033183,210.233725 C417.354228,210.520188 416.987922,211.016091 417.000304,211.630561 L417.149922,218.227886 L417.129285,218.30318 C417.103489,218.397514 417.07047,218.515215 417.088011,218.662342 L417.167463,219.291524 C417.304699,220.385452 418.541884,220.9679 419.710968,220.999057 C419.781133,221.000787 419.850267,221 419.919401,220.998191 C420.970854,220.966169 422.023339,220.450361 421.999606,219.371145 L421.833479,211.731818 C421.820065,211.093116 421.380497,210.55221 420.62828,210.246706" id="Fill-116" fill="#FFFFFF"></path>
                            <path d="M42.5005104,225 C43.2456618,225 44,224.558567 44,223.716157 L44,219.283843 C44,218.441433 43.244641,218 42.4994896,218 C42.1126233,218 41.7502552,218.114179 41.4777135,218.319163 C41.1653624,218.555613 41,218.88916 41,219.283843 L41,223.716157 C41,224.11084 41.1653624,224.444387 41.4787343,224.681736 C41.7512759,224.88672 42.1136441,225 42.5005104,225" id="Fill-118" fill="#FFFFFF"></path>
                            <path d="M37.6667849,227.071008 L33.229077,227.000163 C32.7707475,226.993178 32.3959958,227.210703 32.1803113,227.611826 C31.9376663,228.062841 31.9403623,228.693463 32.1857034,229.181397 C32.4202603,229.648376 32.8390476,229.920781 33.3333245,229.927766 L37.7701337,229.999609 C37.8033851,230.000606 37.8366364,229.999609 37.8698878,229.997613 C38.2841817,229.973665 38.62029,229.759134 38.8197981,229.386947 C39.0624431,228.936931 39.0597471,228.306309 38.8135073,227.818375 C38.5798491,227.351396 38.1610618,227.078991 37.6667849,227.071008" id="Fill-120" fill="#FFFFFF"></path>
                            <path d="M51.5595763,227 L46.4404237,227 C45.494263,227 45,227.754595 45,228.501021 C45,229.245405 45.494263,230 46.4404237,230 L51.5595763,230 C52.5047283,230 53,229.244384 53,228.498979 C53,227.753574 52.5047283,227 51.5595763,227" id="Fill-122" fill="#FFFFFF"></path>
                            <path d="M43.1763264,232.179007 C42.6984487,231.944066 42.0724683,231.94005 41.6202616,232.168967 C41.2124858,232.377804 40.9923066,232.739252 41.0002054,233.185038 L41.0900543,237.983263 L41.0782061,238.038484 C41.0614211,238.106758 41.0426615,238.192099 41.0535223,238.300534 L41.0999278,238.758368 C41.1828653,239.55255 41.9243657,239.977252 42.626372,239.999341 C42.6678408,240.000345 42.7093095,240.000345 42.7507782,239.998336 C43.3826827,239.975244 44.0135998,239.600743 43.9997769,238.814594 L43.8990672,233.258331 C43.8921557,232.794473 43.6275457,232.400896 43.1763264,232.179007" id="Fill-124" fill="#FFFFFF"></path>
                            <path d="M347.000427,41 C347.994666,41 349,40.3072959 349,38.9838943 L349,32.0161057 C349,30.6918183 347.992959,30 346.999573,30 C346.483252,30 345.99936,30.1771622 345.636655,30.5004832 C345.221037,30.8716379 345,31.396038 345,32.0161057 L345,38.9838943 C345,39.6030762 345.221037,40.1274762 345.637508,40.4995168 C346.001067,40.8228378 346.484958,41 347.000427,41" id="Fill-126" fill="#FFFFFF"></path>
                            <path d="M339.905052,44.1171347 L332.931269,44.0003141 C332.212377,43.9877976 331.621859,44.3497328 331.282775,45.019365 C330.902081,45.7703544 330.906508,46.8227826 331.291629,47.6363545 C331.660813,48.4144629 332.318617,48.8692288 333.095056,48.8817452 L340.068839,48.9996089 C340.120188,49.0006519 340.172423,48.9996089 340.223772,48.9964797 C340.876264,48.9578872 341.402153,48.6011673 341.717332,47.9795149 C342.098026,47.2285255 342.0936,46.1771403 341.707594,45.3625254 C341.338409,44.584417 340.68149,44.1306942 339.905052,44.1171347" id="Fill-128" fill="#FFFFFF"></path>
                            <path d="M361.02,44 L353.98,44 C352.68,44 352,45.0070408 352,46.0012801 C352,46.9938127 352.68,48 353.98,48 L361.02,48 C362.32,48 363,46.9929592 363,45.9987199 C363,45.0061873 362.32,44 361.02,44" id="Fill-130" fill="#FFFFFF"></path>
                            <path d="M348.62828,51.2463845 C347.830662,50.9226965 346.786432,50.9175037 346.033183,51.2334023 C345.354228,51.5198749 344.987922,52.0157925 345.000304,52.6302804 L345.149922,59.2278028 L345.129285,59.3030992 C345.103489,59.3974361 345.07047,59.5151408 345.088011,59.6622717 L345.167463,60.2914726 C345.304699,61.3854341 346.542916,61.9687648 347.710968,61.9990565 C347.781133,62.0007874 347.850267,62 347.919401,61.998191 C348.970854,61.9661684 350.023339,61.4512103 349.999606,60.3710964 L349.833479,52.731541 C349.820065,52.0936853 349.380497,51.5518975 348.62828,51.2463845" id="Fill-132" fill="#FFFFFF"></path>
                            <path d="M42.6376918,361 L21.3408103,271.988741 C19.5129988,264.348682 25.2680862,257 33.0803609,257 L163.260652,257 C168.647839,257 173.382878,260.589733 174.867075,265.798329 L202,361 L42.6376918,361 Z" id="Fill-134" fill="#535453"></path>
                            <path d="M309.680358,361 L196.319642,361 C193.934236,361 192,358.985525 192,356.5 C192,354.014475 193.934236,352 196.319642,352 L309.680358,352 C312.065764,352 314,354.014475 314,356.5 C314,358.985525 312.065764,361 309.680358,361" id="Fill-136" fill="#535453"></path>
                            <path d="M101.987691,303 C101.900378,303 101.817566,303.007357 101.734755,303.018394 C101.650142,303.007357 101.56373,303 101.478218,303 C95.5949732,303 91.3778677,307.847639 92.0754679,313.804414 C92.5993431,318.270386 95.71199,322.216738 100.006506,323.857449 C100.260343,323.953096 100.515079,324 100.761715,324 C101.56283,324 102.264031,323.511649 102.482762,322.709687 C102.767203,321.66309 102.12181,320.47946 101.039855,320.066524 C98.3655709,319.043838 96.4257924,316.58645 96.0999456,313.804414 C95.6651832,310.094421 98.2926604,307.076027 101.956186,307.076027 C102.042599,307.076027 102.125411,307.06775 102.208223,307.056714 C102.293735,307.06775 102.379247,307.076027 102.464759,307.076027 C106.129185,307.076027 109.464164,310.094421 109.898927,313.804414 C110.224773,316.58645 108.862878,319.043838 106.428028,320.066524 C105.442387,320.47946 105.074234,321.66309 105.60531,322.709687 C106.011269,323.511649 106.825885,324 107.628801,324 C107.873636,324 108.119371,323.953096 108.348904,323.857449 C112.259065,322.216738 114.446379,318.270386 113.923404,313.804414 C113.224004,307.847639 107.870035,303 101.987691,303" id="Fill-138" fill="#A1A2A2"></path>
                            <path d="M106.968108,314.5 C106.674778,312.014161 104.436773,310 101.969634,310 C99.5015079,310 97.7385606,312.014161 98.0318914,314.5 C98.3252221,316.985839 100.563227,319 103.031353,319 C105.498492,319 107.261439,316.985839 106.968108,314.5" id="Fill-140" fill="#A1A2A2"></path>
                            <path d="M379.061649,360 L354.938351,360 C346.13564,360 339,352.840909 339,344.009268 L339,302.079631 C339,299.274381 341.266036,297 344.062096,297 L389.985355,297 C392.754557,297 395,299.252823 395,302.031125 L395,344.009268 C395,352.840909 387.86436,360 379.061649,360" id="Fill-142" fill="#E7E7E7"></path>
                            <path d="M393.866489,316.573882 C394.051944,316.533094 394.237398,316.493214 394.423745,316.456958 C394.578885,316.427048 395.378659,316.332784 394.744724,316.394418 C394.159828,316.450614 395.273449,316.368133 395.448204,316.360882 C396.338031,316.321001 397.41242,316.255742 398.283523,316.475992 C397.474833,316.272057 398.151565,316.47418 398.554572,316.558473 C398.989678,316.650018 399.420325,316.757877 399.848298,316.881145 C400.21475,316.985379 400.577635,317.101395 400.938737,317.228289 C401.17858,317.311676 401.413073,317.41319 401.652916,317.495671 C402.289525,317.713202 401.005607,317.159404 401.602094,317.473011 C402.303791,317.841909 403.015296,318.177269 403.689353,318.598737 C404.041538,318.8208 404.375,319.064616 404.717379,319.300275 C405.1721,319.612977 404.473078,319.117187 404.477536,319.11628 C404.558672,319.099965 404.939389,319.525058 405.00626,319.588505 C405.307624,319.874921 405.565299,320.198499 405.858639,320.488541 C406.234007,320.860157 405.699932,320.253788 405.682992,320.23838 C405.828324,320.36346 406.009321,320.725106 406.095807,320.867408 C406.291961,321.189173 406.459584,321.523628 406.630773,321.858989 C406.674462,321.944189 406.903606,322.52246 406.697644,321.988601 C406.458692,321.368637 406.816228,322.368375 406.855459,322.48983 C407.106893,323.275662 407.295914,324.079622 407.443921,324.890833 C407.495634,325.178156 407.835338,326.383643 407.533974,325.362151 C407.661474,325.793589 407.635617,326.342855 407.665932,326.790608 C407.722995,327.676142 407.735477,328.565302 407.684656,329.452648 C407.668607,329.723656 407.634725,329.994664 407.62046,330.264766 C407.624918,330.195881 407.764901,329.485278 407.651666,330.024575 C407.539323,330.555714 407.450162,331.084134 407.303938,331.608022 C407.24955,331.803801 407.184463,331.995953 407.129183,332.189919 C407.106893,332.26968 406.910738,332.928619 407.089952,332.363944 C407.270057,331.799269 407.035564,332.484493 406.96691,332.626795 C406.891123,332.782692 406.814445,332.937683 406.733308,333.090862 C406.571035,333.395406 406.39628,333.694511 406.210825,333.98546 C406.148412,334.08063 405.946017,334.474905 405.823866,334.558292 C406.051227,334.402395 406.306227,333.976396 405.915702,334.42868 C405.423533,334.998793 404.916208,335.545341 404.357168,336.047476 C404.184196,336.201561 404.004091,336.346582 403.831119,336.49976 C403.420087,336.8605 404.081661,336.28948 404.083444,336.29945 C404.100385,336.410935 403.031345,337.01821 402.935051,337.077125 C402.591781,337.289218 402.241379,337.489528 401.883843,337.678056 C401.731378,337.758723 401.576238,337.833953 401.423772,337.913715 C400.326201,338.484735 401.933773,337.747847 401.272199,337.999821 C400.352949,338.348777 399.431916,338.667824 398.479677,338.912546 C397.97146,339.041252 397.460567,339.153644 396.946109,339.251533 C396.752629,339.288694 396.560042,339.322231 396.365671,339.353954 C396.077681,339.402898 395.35726,339.694753 396.231038,339.381145 C395.331403,339.703817 394.037678,339.572392 393.092572,339.602302 C390.678984,339.679345 388.357233,341.707825 388.471359,344.300075 C388.580135,346.779933 390.504229,349.080328 393.092572,348.997847 C397.857334,348.846482 402.629229,347.963667 406.852784,345.627016 C410.922982,343.37466 414.055207,339.816208 415.764423,335.451984 C417.515544,330.980807 417.21953,325.486325 416.030122,320.90457 C414.783652,316.106189 411.722756,312.290325 407.434113,309.948237 C402.500837,307.255379 396.89707,306.311836 391.409212,307.514604 C389.04288,308.032148 387.443333,310.973354 388.181585,313.292783 C388.988492,315.82793 391.330751,317.129493 393.866489,316.573882" id="Fill-144" fill="#E7E7E7"></path>
                            <g id="Join-the-ride-(-illustration)" stroke-width="1" fill="none" transform="translate(0.000000, 361.000000)">
                                <mask id="mask-4" fill="white">
                                    <use xlink:href="#path-3"></use>
                                </mask>
                                <g id="Clip-147"></g>
                                <path d="M520.084354,20 L3.91555576,20 C1.75321106,20 -9.00976958e-05,18.2306923 -9.00976958e-05,16.0465751 L-9.00976958e-05,3.95251524 C-9.00976958e-05,1.76930774 1.75321106,0 3.91555576,0 L520.084354,0 C522.246699,0 524,1.76930774 524,3.95251524 L524,16.0465751 C524,18.2306923 522.246699,20 520.084354,20" id="Fill-146" fill="#00ADD8" mask="url(#mask-4)"></path>
                            </g>
                        </g>
                    </g>
                </g>
            </g>
        </g>
    </g>
</svg>